<?xml version="1.0" encoding="utf-8"?>
<!-- Generator: Adobe Illustrator 24.1.0, SVG Export Plug-In . SVG Version: 6.00 Build 0)  -->
<svg version="1.1" id="_x30_314_x5F_Advertising" xmlns="http://www.w3.org/2000/svg" xmlns:xlink="http://www.w3.org/1999/xlink"
	 x="0px" y="0px" viewBox="0 0 500 500" style="enable-background:new 0 0 500 500;" xml:space="preserve">
<style type="text/css">
	.st0{fill:#FFFFFF;}
	.st1{fill:#732A09;}
	.st2{fill:#F75454;}
	.st3{fill:none;}
</style>
<g id="monitor">
	<path class="st0" d="M72.4,53.4h278.9c2.2,0,4.1,1.8,4.1,4.1v200.4c0,2.2-1.8,4.1-4.1,4.1H72.4c-2.2,0-4.1-1.8-4.1-4.1V57.4
		C68.3,55.2,70.1,53.4,72.4,53.4z"/>
	<path class="st1" d="M351.3,262.4H72.4c-2.6,0-4.6-2.1-4.6-4.6V57.4c0-2.6,2.1-4.6,4.6-4.6h278.9c2.6,0,4.6,2.1,4.6,4.6v200.4
		C355.9,260.3,353.8,262.4,351.3,262.4z M72.4,53.9c-1.9,0-3.5,1.6-3.5,3.5v200.4c0,1.9,1.6,3.5,3.5,3.5h278.9
		c1.9,0,3.5-1.6,3.5-3.5V57.4c0-1.9-1.6-3.5-3.5-3.5L72.4,53.9z"/>
	<path class="st1" d="M349.6,257.1H74c-0.3,0-0.6-0.3-0.6-0.6V58.7c0-0.3,0.3-0.6,0.6-0.6h275.6c0.3,0,0.6,0.3,0.6,0.6v197.8
		C350.2,256.8,349.9,257.1,349.6,257.1z M74.6,255.9H349V59.3H74.6L74.6,255.9z"/>
</g>
<g id="character-2">
	<path class="st2" d="M132.5,156.2c3.9,0,6.8,1.5,8.7,8.3c1.8,6.9,7.9,27.6,7.9,27.6s27.4-39,62-39s53.8,21.9,66.5,38
		c0,0-0.6-25,0.5-26.7c1.1-1.7,3.9-2.5,3.9-2.5l18.2,3.2c1.4,4.2,2.3,8.5,2.6,12.9c0.7,7.5,3.8,35.4-3.5,41.5s-30.6,3.4-33.7,0.8
		l6.3,36.3H161c0,0,0-18,1-31.5c0,0-17.6,9.2-31.3,0.2c-13.7-9-17.6-57.5-17.8-60.1s5.1-5.7,5.1-5.7L132.5,156.2z"/>
	<path class="st0" d="M135.1,158.2c-4.6-10.6-5.7-13.6-10.8-15.7c-5.1-2.1-7.9-1.9-11-4.8s-5.6-4.1-6.6-2.6s1.6,5.9,1.6,5.9
		s-5.7-1.4-7.7-4.1c-2-2.7-1.9-5.1-3.2-5.4c-1.2-0.3-1.3,7.4,2.4,9.8c-2.2-0.8-4.1-2.5-5.1-4.7c-1.7-3.7-5.7,5.4,7.1,10.2
		c0,0-4,0-6.5-1.9c-2.5-1.9-3.8-2.8-4.6-2.6c-0.9,0.2,2.4,7.8,11.4,10.6c9,2.8,11.7,2.3,12.9,3.8c1.2,1.5,1.9,6.8,1.9,6.8
		S128.2,157.3,135.1,158.2z"/>
	<path class="st1" d="M117,164c-0.1,0-0.2,0-0.2-0.1c-0.2-0.1-0.3-0.2-0.3-0.4c-0.2-1.4-0.9-5.5-1.8-6.5c-0.5-0.6-1.5-0.8-3.6-1.3
		c-1.9-0.4-4.8-1-9-2.3c-8.4-2.6-12-9.2-12-10.9c0-0.4,0.2-0.7,0.6-0.8c1.1-0.2,2.3,0.6,5.1,2.7c0.7,0.5,1.5,0.9,2.3,1.1
		c-4.4-2.6-5.9-5.9-5.7-8.3c0.1-1.1,0.6-2,1.4-2.1c0.3-0.1,1.1-0.1,1.6,1.1c0.5,1,1.2,1.9,2,2.7c-1.3-2.6-1.4-6-0.8-7.3
		c0.4-0.9,1-0.8,1.1-0.7c0.9,0.2,1.3,1.1,1.7,2.3c0.4,1.2,1,2.3,1.8,3.4c1.3,1.7,4.3,2.9,6,3.5c-0.8-1.5-1.8-4-0.9-5.2
		c0.3-0.5,0.9-0.8,1.5-0.9c1.4-0.2,3.4,1,6,3.4c1.9,1.8,3.7,2.3,6.1,3.1c1.6,0.5,3.1,1,4.6,1.6c5,2.1,6.3,4.9,10.3,14.3l0.7,1.6
		c0.1,0.2,0.1,0.4-0.1,0.6c-0.1,0.2-0.3,0.3-0.5,0.2c-6.7-0.9-17.6,5.1-17.7,5.1C117.2,164,117.1,164,117,164z M91.3,142.8
		c0.4,1.6,3.8,7.2,11.1,9.5c4.2,1.3,7,1.9,8.9,2.3c2.3,0.5,3.5,0.7,4.2,1.7c1,1.2,1.6,4.7,1.9,6.3c2.5-1.3,10.7-5.3,16.7-5l-0.3-0.8
		c-3.9-9-5.1-11.8-9.7-13.7c-1.8-0.7-3.2-1.1-4.5-1.6c-2.4-0.5-4.7-1.7-6.6-3.3c-3-2.8-4.5-3.2-5.1-3.1c-0.3,0-0.5,0.2-0.7,0.4
		c-0.6,0.8,0.6,3.6,1.6,5.2c0.1,0.2,0.1,0.4,0,0.6c-0.1,0.2-0.4,0.3-0.6,0.2c-0.2-0.1-5.9-1.5-8-4.3c-0.8-1.1-1.4-2.3-1.9-3.6
		c-0.1-0.6-0.4-1.1-0.8-1.5c-0.3,1-0.3,2-0.2,3c0.3,2.6,1.4,4.7,2.8,5.7c0.2,0.2,0.3,0.5,0.2,0.7c-0.1,0.3-0.4,0.4-0.7,0.3
		c-2.4-0.9-4.3-2.7-5.4-5c-0.2-0.4-0.4-0.5-0.4-0.5s-0.4,0.4-0.4,1.1c-0.2,2.5,1.9,6.3,8.7,8.9c0.3,0.1,0.4,0.4,0.4,0.6
		c0,0.3-0.3,0.5-0.6,0.5l0,0c-0.2,0-4.2,0-6.9-2C94,144.3,92.7,143.5,91.3,142.8z"/>
	<path class="st0" d="M127.9,139.6c0,0,0.5-5-1.5-8.1s-7.5-4.3-12.4-4.5s-13.2,3.3-14.5,6.3c-0.8,1.6-1.1,3.4-0.8,5.2
		c0,0,4.5,3.9,4.7,3.9h13.4L127.9,139.6z"/>
	<path class="st1" d="M116.8,142.8h-13.4c-0.2,0-0.4,0-5.1-4c-0.1-0.1-0.2-0.2-0.2-0.3c-0.3-1.9,0-3.8,0.9-5.5
		c1.5-3.4,10.2-6.9,15-6.6c3,0.1,10.3,0.9,12.9,4.8c2.1,3.2,1.6,8.2,1.6,8.4c0,0.2-0.2,0.4-0.4,0.5l-11.1,2.7L116.8,142.8z
		 M103.5,141.7h13.2l10.6-2.6c0.1-1.2,0.1-4.9-1.4-7.3s-6.1-4-12-4.3c-4.7-0.2-12.8,3.2-14,6c-0.7,1.5-1,3.1-0.8,4.6
		C101,139.7,103,141.4,103.5,141.7z M127.9,139.6L127.9,139.6z"/>
	<path class="st2" d="M130.7,141.8c0,0.8-2.2,1.6-2.2,1.6l-9.9,4.8l-11.1,0.6l-8.9-3.4c0,0-2.1-1-2-2.6c0-0.3,0-0.7-0.1-1
		c-0.2-0.9-0.7-1.4,0.1-2.1c0.5-0.6,1.2-1,2-1.1c4.5,1.9,9.4,2.7,14.2,2.1c5.1-0.5,10.2-1.3,15.2-2.5c2.3,0.2,2.8,0.9,2.4,1.5
		c-0.1,0.2-0.2,0.4-0.1,0.6C130.6,140.7,130.7,141.2,130.7,141.8z"/>
	<path class="st1" d="M107.5,149.3h-0.2l-8.9-3.4c-0.1-0.1-2.5-1.2-2.3-3.2c0-0.3,0-0.6-0.1-0.8c0-0.2-0.1-0.3-0.1-0.5
		c-0.4-0.7-0.2-1.6,0.4-2.2c0.6-0.7,1.5-1.1,2.4-1.2c0.1,0,0.2,0,0.3,0.1c4.4,1.9,9.2,2.6,13.9,2.1c5.1-0.4,10.2-1.2,15.2-2.4h0.2
		c1.6,0.1,2.6,0.5,2.9,1.1c0.2,0.4,0.2,0.8-0.1,1.2c0,0.1,0,0.2,0,0.2c0,0.2,0,0.4,0.1,0.6c0.1,0.3,0.1,0.7,0.1,1
		c-0.1,1-1.8,1.8-2.5,2.1l-9.9,4.7c-0.1,0-0.1,0-0.2,0.1L107.5,149.3L107.5,149.3z M98.5,139c-0.6,0.1-1.1,0.4-1.5,0.9
		c-0.4,0.4-0.3,0.5-0.1,1.1c0,0.2,0.1,0.4,0.2,0.6c0.1,0.4,0.1,0.8,0.1,1.2c-0.1,1.1,1.6,2,1.6,2.1l8.7,3.4l10.9-0.6l9.8-4.7
		c0.7-0.2,1.3-0.6,1.8-1.1c0-0.2,0-0.5-0.1-0.7c-0.1-0.2-0.1-0.5-0.1-0.7c0-0.3,0-0.7,0.2-0.9c0-0.2-0.4-0.5-1.9-0.6
		c-5,1.2-10.1,2-15.3,2.4C108,141.7,103.1,140.9,98.5,139L98.5,139z M118.6,148.1L118.6,148.1z"/>
	<path class="st0" d="M128.5,143.3c0,0,0.1,6.3-3.9,6.9c-4,0.7-17.9,2.3-21.1,0.5c-2.1-1.3-3.8-3.2-4.8-5.5
		C98.6,145.3,121,146.7,128.5,143.3z"/>
	<path class="st1" d="M109.5,152.2c-2.7,0-5.1-0.2-6.3-0.9c-2.3-1.4-4-3.4-5.1-5.8c-0.1-0.2,0-0.4,0.1-0.5c0.1-0.2,0.3-0.3,0.5-0.2
		c0.2,0,22.3,1.3,29.6-1.9c0.2-0.1,0.4-0.1,0.5,0c0.2,0.1,0.3,0.3,0.3,0.5c0,0.3,0,6.8-4.4,7.5C119.7,151.6,114.6,152,109.5,152.2z
		 M99.6,145.9c0.9,1.8,2.4,3.4,4.1,4.4c2.9,1.6,16,0.2,20.8-0.6c2.7-0.5,3.3-3.9,3.4-5.5C120.6,146.8,103.8,146.1,99.6,145.9
		L99.6,145.9z"/>
	<circle class="st1" cx="120.2" cy="131.8" r="0.6"/>
	<circle class="st1" cx="115.5" cy="130" r="0.6"/>
	<circle class="st1" cx="113.3" cy="134" r="0.6"/>
	<circle class="st1" cx="119.6" cy="136" r="0.6"/>
	<circle class="st1" cx="109.3" cy="132.3" r="0.6"/>
	<circle class="st1" cx="105.4" cy="135.5" r="0.6"/>
	<circle class="st1" cx="103.4" cy="133.1" r="0.6"/>
	<path class="st2" d="M130.6,139.6c-0.1,0.2-0.2,0.4-0.1,0.6l0,0c-5.3,1.9-10.9,2.8-16.5,2.8c-5.8,0.1-11.6-0.4-17.3-1.4l0,0
		c-0.2-0.9-0.7-1.4,0.1-2.1c0.5-0.6,1.2-1,2-1.1c4.5,1.9,9.4,2.7,14.2,2.1c5.1-0.5,10.2-1.3,15.3-2.5
		C130.5,138.3,130.9,139,130.6,139.6z"/>
	<path class="st1" d="M113.2,143.6c-5.6,0-11.2-0.4-16.7-1.4c-0.2,0-0.3-0.1-0.4-0.3v-0.1c0-0.2-0.1-0.3-0.1-0.5
		c-0.4-0.7-0.2-1.6,0.4-2.2c0.6-0.7,1.5-1.1,2.4-1.2c0.1,0,0.2,0,0.3,0.1c4.4,1.9,9.2,2.6,13.9,2.1c5.1-0.4,10.2-1.2,15.2-2.4h0.2
		c1.6,0.1,2.6,0.5,2.9,1.1c0.2,0.4,0.2,0.8-0.1,1.2c0,0.1,0,0.2,0,0.2c0,0.2,0,0.3-0.1,0.5c-0.1,0.1-0.2,0.2-0.3,0.2
		c-5.3,1.9-11,2.8-16.7,2.8L113.2,143.6z M97,141.2c5.6,0.9,11.2,1.4,16.9,1.3c5.4,0,10.8-0.9,16-2.6c0-0.2,0.1-0.4,0.2-0.5l0,0
		c0,0,0-0.1,0-0.1c0-0.1-0.4-0.5-1.9-0.6c-5,1.2-10.1,2-15.3,2.4c-4.9,0.5-9.8-0.2-14.4-2.1c-0.6,0.1-1.1,0.4-1.5,0.9
		c-0.4,0.4-0.3,0.5-0.1,1.1C97,141,97,141.1,97,141.2z"/>
	<path class="st2" d="M302.8,142.1V168c0,1-0.8,1.9-1.9,1.9c0,0,0,0,0,0h-10.5c-1.1,0-1.9-0.9-1.9-1.9v-25.9c0-2.5,1.3-4.8,3.4-6.1
		v-7.9h7.5v7.9C301.5,137.3,302.8,139.6,302.8,142.1z"/>
	<path class="st1" d="M300.9,170.5h-10.5c-1.4,0-2.5-1.1-2.5-2.5v-25.9c0-2.6,1.3-4.9,3.4-6.4v-7.5c0-0.3,0.3-0.6,0.6-0.6h7.5
		c0.3,0,0.6,0.3,0.6,0.6v7.5c2.1,1.4,3.4,3.8,3.4,6.4V168C303.4,169.4,302.3,170.5,300.9,170.5C300.9,170.5,300.9,170.5,300.9,170.5
		z M292.4,128.7v7.3c0,0.2-0.1,0.4-0.3,0.5c-1.9,1.2-3.1,3.3-3.1,5.6V168c0,0.7,0.6,1.3,1.3,1.3c0,0,0,0,0,0h10.5
		c0.7,0,1.3-0.6,1.3-1.3c0,0,0,0,0,0v-25.9c0-2.3-1.2-4.4-3.1-5.6c-0.2-0.1-0.3-0.3-0.3-0.5v-7.3L292.4,128.7z"/>
	<path class="st0" d="M280.7,165.3c-0.2-6.2,1.1-12.4,3.8-18.1c1.6-3.6,6.2-7.3,7.8-6.4c1.6,0.9-0.1,6.4-3.7,8.2l-0.1,15.9
		C285.9,165.5,283.3,165.6,280.7,165.3z"/>
	<path class="st1" d="M283.3,166.1c-0.9,0-1.8-0.1-2.7-0.2c-0.3,0-0.4-0.3-0.5-0.5c-0.2-6.3,1.1-12.6,3.8-18.3
		c1.3-2.8,4.4-6,6.8-6.8c0.6-0.3,1.3-0.3,1.9,0c0.6,0.5,1,1.3,0.9,2.1c-0.3,2.9-1.9,5.4-4.3,7l-0.1,15.6c0,0.3-0.2,0.5-0.5,0.6
		C286.9,165.8,285.1,166,283.3,166.1z M281.2,164.8c2.2,0.2,4.5,0.1,6.7-0.3L288,149c0-0.2,0.1-0.4,0.3-0.5c2.3-1.3,3.8-3.6,4-6.1
		c0-0.5-0.1-0.9-0.3-1.1c-0.3-0.1-0.6-0.1-0.9,0c-1.8,0.6-4.8,3.4-6.1,6.1C282.4,152.9,281.1,158.8,281.2,164.8z"/>
	<path class="st0" d="M303.1,147.1c0,0-3.2,3.3-6.4,4s-2.9,3.6-0.8,3.9c0,0-0.7,2.7,0.9,3.1c0,0-0.8,2.6,1.1,2.9c0,0-0.9,1.9,1.1,2
		s8.2-2.3,8.7-4c0.5-1.6-1.6-1.5-1.6-1.5s1.5-1.7,0.9-3.2c-0.4-0.8-1.3-1.2-2.1-0.8c0,0,0,0-0.1,0c0,0,1.6-1.1,1.1-2.6
		c-0.2-0.8-1-1.3-1.9-1.1C304.3,149.9,305.5,147.6,303.1,147.1z"/>
	<path class="st1" d="M299.3,163.7h-0.1c-0.7,0-1.3-0.3-1.6-0.9c-0.2-0.4-0.3-0.9-0.2-1.3c-0.3-0.2-0.6-0.4-0.8-0.7
		c-0.4-0.7-0.5-1.5-0.3-2.3c-0.3-0.2-0.5-0.4-0.6-0.6c-0.4-0.7-0.5-1.6-0.3-2.4c-0.9-0.3-1.5-1.1-1.5-2c0-1,0.7-2.4,2.8-2.9
		c3-0.7,6-3.8,6.1-3.9c0.1-0.1,0.3-0.2,0.5-0.2c0.7,0.1,1.4,0.5,1.8,1.1c0.2,0.5,0.3,1.2,0.1,1.7c0.8,0.1,1.4,0.7,1.6,1.5
		c0.2,0.7,0.1,1.5-0.3,2.1c0.1,0,0.1,0,0.2,0.1c0.5,0.2,0.9,0.6,1.1,1.1c0.3,1,0.2,2.1-0.4,3c0.4,0.1,0.7,0.3,1,0.6
		c0.3,0.4,0.4,1,0.2,1.5C307.7,161.4,301.5,163.7,299.3,163.7z M303.2,147.8c-0.8,0.8-3.6,3.3-6.4,4c-1.4,0.3-1.9,1.1-1.9,1.7
		c0,0.6,0.5,1.1,1.1,1.1c0.2,0,0.3,0.1,0.4,0.2c0.1,0.1,0.1,0.3,0.1,0.5c-0.2,0.7-0.2,1.4,0.1,2.1c0.1,0.2,0.3,0.3,0.4,0.3
		c0.2,0,0.3,0.1,0.4,0.3c0.1,0.1,0.1,0.3,0.1,0.4c-0.2,0.6-0.2,1.2,0,1.8c0.1,0.2,0.3,0.3,0.6,0.4c0.2,0,0.3,0.1,0.4,0.3
		c0.1,0.2,0.1,0.3,0,0.5c-0.1,0.3-0.2,0.6-0.1,0.9c0.2,0.2,0.5,0.3,0.7,0.3c2,0.1,7.8-2.4,8.2-3.6c0.1-0.2,0.1-0.4,0-0.5
		c-0.1-0.1-0.8-0.3-1.1-0.3c-0.2,0-0.4-0.1-0.5-0.3c-0.1-0.2-0.1-0.4,0.1-0.6c0.4-0.4,1.2-1.6,0.8-2.6c-0.1-0.2-0.3-0.4-0.5-0.5
		c-0.3-0.1-0.6-0.1-0.9,0.1c-0.3,0.1-0.6,0-0.7-0.2c-0.1-0.3-0.1-0.6,0.2-0.7c0,0,1.3-0.9,0.9-1.9c-0.1-0.5-0.7-0.8-1.2-0.7
		c-0.2,0-0.4,0-0.6-0.2c-0.1-0.2-0.2-0.4-0.1-0.6c0.2-0.5,0.3-1,0.1-1.5C303.8,148,303.5,147.8,303.2,147.8L303.2,147.8z"/>
	<path class="st1" d="M295.9,155.7c-0.3,0-0.6-0.2-0.6-0.5s0.2-0.6,0.5-0.6c3.9-1.2,8.1-4.9,8.1-5c0.2-0.2,0.6-0.2,0.8,0
		c0,0,0,0,0,0c0.2,0.2,0.2,0.6,0,0.8c-0.2,0.2-4.4,3.9-8.6,5.2L295.9,155.7z"/>
	<path class="st1" d="M296.9,158.8c-0.3,0-0.5-0.2-0.5-0.4c-0.1-0.3,0.1-0.6,0.4-0.7c0,0,0,0,0,0c3.6-1,7.9-4.4,7.9-4.5
		c0.2-0.2,0.6-0.2,0.8,0.1c0.2,0.2,0.2,0.6-0.1,0.8c-0.2,0.1-4.5,3.6-8.3,4.7L296.9,158.8z"/>
	<path class="st1" d="M298,161.7c-0.3,0-0.5-0.2-0.6-0.5c0-0.3,0.2-0.6,0.5-0.7c3.5-0.6,8-3.4,8.1-3.4c0.3-0.2,0.6-0.1,0.8,0.2
		c0.2,0.3,0.1,0.6-0.2,0.8l0,0C306.4,158.2,301.8,161,298,161.7L298,161.7z"/>
	<path class="st0" d="M291.5,124.8h8.2c0.9,0,1.5,0.7,1.5,1.5v0.3c0,0.9-0.7,1.5-1.5,1.5h-8.2c-0.9,0-1.5-0.7-1.5-1.5v-0.3
		C290,125.5,290.7,124.8,291.5,124.8z"/>
	<path class="st1" d="M299.8,128.7h-8.2c-1.2,0-2.1-0.9-2.1-2.1v-0.3c0-1.2,0.9-2.1,2.1-2.1h8.2c1.2,0,2.1,0.9,2.1,2.1v0.3
		C301.9,127.8,300.9,128.7,299.8,128.7z M291.5,125.4c-0.5,0-1,0.4-1,1v0.3c0,0.5,0.4,1,1,1h8.2c0.5,0,1-0.4,1-1v-0.3
		c0-0.5-0.4-1-1-1H291.5z"/>
	<path class="st1" d="M162.1,220.8L162.1,220.8c-0.4,0-0.6-0.3-0.6-0.6c0,0,0,0,0,0c0-0.2,3.1-24.6,5.3-33.8
		c0.1-0.3,0.4-0.5,0.7-0.4c0.3,0.1,0.5,0.4,0.4,0.7c0,0,0,0,0,0c-2.3,9.2-5.3,33.4-5.3,33.7C162.6,220.6,162.3,220.8,162.1,220.8z"
		/>
	<path class="st1" d="M263.9,216.1c-0.3,0-0.5-0.2-0.6-0.4c0-0.2-4.4-17.4-6.9-26.2c-0.1-0.3,0.1-0.6,0.4-0.7
		c0.3-0.1,0.6,0.1,0.7,0.4c2.6,8.7,6.9,26,6.9,26.2c0.1,0.3-0.1,0.6-0.4,0.7c0,0,0,0,0,0L263.9,216.1z"/>
	<path class="st1" d="M277.8,202.9c-0.3,0-0.5-0.2-0.6-0.5c-0.4-2.8-0.6-5.7-0.6-8.5c0-0.3,0.3-0.6,0.6-0.6c0.3,0,0.6,0.3,0.6,0.6
		c0,0,0,3,0.6,8.4C278.4,202.6,278.1,202.9,277.8,202.9L277.8,202.9z"/>
	<path class="st1" d="M150,203.3c-0.3,0-0.5-0.2-0.6-0.5c-0.4-4.2-0.7-7.3-0.7-7.3c0-0.3,0.2-0.6,0.5-0.6c0,0,0,0,0,0
		c0.3,0,0.6,0.2,0.6,0.5c0,0,0,0,0,0c0,0,0.4,3.2,0.7,7.3C150.5,203,150.3,203.3,150,203.3L150,203.3z"/>
	<path class="st0" d="M215.9,141.1c-0.5,5.9-0.3,11.9,0.8,17.7c0,0-11.3,2.4-15.3-0.5l0.2-10.8L215.9,141.1z"/>
	<path class="st1" d="M208.1,160.3c-2.7,0-5.4-0.4-7-1.5c-0.1-0.1-0.2-0.3-0.2-0.5l0.2-10.8c0-0.2,0.1-0.4,0.3-0.5l14.2-6.4
		c0.2-0.1,0.4-0.1,0.6,0c0.2,0.1,0.2,0.3,0.2,0.5c-0.5,5.8-0.3,11.7,0.8,17.5c0,0.1,0,0.3-0.1,0.4c-0.1,0.1-0.2,0.2-0.4,0.2
		C214,159.9,211,160.2,208.1,160.3z M202,158c3.4,2.1,11.8,0.7,14.1,0.3c-0.9-5.4-1.2-10.9-0.8-16.3l-13,5.9L202,158z"/>
	<path class="st2" d="M225.7,139.4c7.6-15.5-6.3-17.8-6.3-17.8s2.5-6.9-2.8-11c-5.3-4.1-11.1-2.1-16.7-7s-17-4.8-20.6,7.2
		s1,15.5,1,15.5l21.5,13.8l16.4,2.9L225.7,139.4z"/>
	<path class="st1" d="M218.1,143.5L218.1,143.5l-16.5-2.9c-0.1,0-0.1,0-0.2-0.1l-21.5-13.8c-0.2-0.2-4.9-3.9-1.2-16.1
		c1.6-5.3,4.9-8.9,9.3-10.2c4.3-1.2,8.8-0.2,12.2,2.7c2.9,2.5,5.8,3.1,8.7,3.8c2.9,0.4,5.6,1.5,8,3.2c4.6,3.6,3.6,9.2,3.1,11
		c1.5,0.4,5.5,1.7,7.4,5.4c1.8,3.4,1.3,7.8-1.3,13.1c-0.1,0.1-0.1,0.2-0.3,0.3l-7.7,3.5C218.2,143.5,218.1,143.5,218.1,143.5z
		 M201.9,139.5l16.1,2.8l7.3-3.4c2.4-4.9,2.8-8.9,1.2-11.9c-2.1-4-7.2-4.9-7.2-4.9c-0.2,0-0.3-0.1-0.4-0.3c-0.1-0.2-0.1-0.3,0-0.5
		c0.1-0.3,2.3-6.5-2.6-10.4c-2.2-1.6-4.8-2.6-7.5-3c-3-0.7-6.1-1.3-9.2-4c-3.1-2.6-7.3-3.5-11.2-2.5c-2.8,0.8-6.6,3.1-8.6,9.4
		c-3.5,11.4,0.7,14.8,0.8,14.9L201.9,139.5z M225.7,139.4L225.7,139.4z"/>
	<path class="st0" d="M182.7,118.1c0,0-12.1,30.2,5.7,34.7s29.6-8.4,29.6-8.4c5.9,2.8,10.8-2.5,7.7-5.1c-3.2-2.6-6.6,1.8-6.6,1.8
		s-6.5-4.4-4.3-14.9c0,0-8.6,2.2-12.2-4.8c0,0-18.2,1.4-22.6-6.9"/>
	<path class="st1" d="M195.8,154.3c-2.5,0-5.1-0.3-7.5-0.9c-3.5-0.8-6.6-3.1-8.2-6.3c-5.1-10,1.4-27.3,2.1-29
		c-1.1-0.8-2.1-1.9-2.7-3.1c-0.1-0.3,0-0.6,0.3-0.8c0.3-0.1,0.6,0,0.8,0.3c4.2,7.8,21.9,6.6,22.1,6.6c0.2,0,0.4,0.1,0.5,0.3
		c3.4,6.5,11.3,4.6,11.6,4.5c0.2,0,0.4,0,0.5,0.1c0.1,0.1,0.2,0.3,0.2,0.5c-1.8,8.6,2.4,12.8,3.7,14c1.1-1.2,2.5-2.1,4.1-2.4
		c1.1-0.1,2.1,0.2,2.9,0.9c1.3,1,1.6,2.9,0.6,4.2c-1.4,2.2-4.8,3.5-8.6,1.9C216.5,146.7,208.1,154.3,195.8,154.3z M183.1,118.7
		c-1,2.6-6.7,18.7-2,27.8c1.5,2.9,4.2,5.1,7.5,5.8c17.2,4.3,29-8.1,29.1-8.2c0.2-0.2,0.4-0.2,0.7-0.1c3.5,1.7,6.5,0.2,7.5-1.4
		c0.6-0.9,0.5-2.1-0.4-2.7c-0.6-0.5-1.3-0.7-2.1-0.7c-1.5,0.4-2.7,1.2-3.7,2.4c-0.2,0.2-0.5,0.3-0.8,0.1c-0.3-0.2-6.5-4.5-4.7-14.7
		c-2.3,0.4-8.7,0.7-11.8-4.9C200.1,122.3,189.5,122.6,183.1,118.7L183.1,118.7z"/>
	<path class="st1" d="M220.2,143.1c-0.1,0-0.1,0-0.2-0.1c-0.2-0.1-0.3-0.4-0.1-0.6c0.7-1.1,2.6-3,4.8-1.9c0.2,0.1,0.3,0.4,0.1,0.6
		c-0.1,0.2-0.3,0.2-0.5,0.2c-2-1.1-3.6,1.4-3.7,1.5C220.5,143.1,220.3,143.1,220.2,143.1z"/>
	<path class="st1" d="M200.3,129.9c1.1-0.5,2.4-0.8,3.6-0.7c0.6,0,1.2,0.1,1.8,0.3c0.6,0.1,1.2,0.4,1.7,0.7c0.2,0.1,0.2,0.3,0.1,0.4
		c-0.1,0.1-0.2,0.2-0.3,0.2l0,0c-0.6-0.1-1.1-0.2-1.7-0.3c-0.6-0.1-1.1-0.1-1.7-0.1c-1.1,0-2.3,0-3.4,0.2l0,0c-0.2,0-0.3,0-0.4-0.2
		C200.1,130.2,200.2,130,200.3,129.9L200.3,129.9L200.3,129.9z"/>
	<path class="st1" d="M183.4,127.1c1.4-0.2,2.8-0.2,4.1,0c0.7,0.1,1.3,0.3,2,0.5c0.7,0.2,1.3,0.5,1.9,0.8c0.2,0.1,0.2,0.3,0.2,0.4
		c0,0,0,0,0,0c-0.1,0.1-0.2,0.2-0.4,0.2c-1.3-0.2-2.6-0.5-3.9-0.7c-0.6-0.1-1.3-0.2-1.9-0.3c-0.6-0.1-1.3-0.1-1.9-0.2l0,0
		c-0.2,0-0.3-0.1-0.3-0.3c0,0,0,0,0,0C183.1,127.3,183.2,127.2,183.4,127.1z"/>
	<path class="st1" d="M190.1,140.6c-1.3,0-2.4-1-2.5-2.3c-0.1-0.7,0.1-1.4,0.5-1.9c0.8-0.7,1.8-1.1,2.8-1.1c0.1-2.2,0-4.4-0.2-6.6
		c0-0.3,0.2-0.6,0.5-0.6c0.3,0,0.6,0.2,0.6,0.5c0.3,2.4,0.3,4.9,0.2,7.4c0,0.3-0.3,0.5-0.6,0.5c-0.9,0-1.8,0.2-2.5,0.8
		c-0.2,0.3-0.3,0.6-0.2,1c0,0.7,0.6,1.3,1.3,1.3c0,0,0.1,0,0.1,0c1.1,0,1.9-0.9,2-1.9c0-0.3,0.2-0.6,0.6-0.6c0,0,0,0,0,0
		c0.3,0,0.6,0.3,0.6,0.6c-0.1,1.6-1.5,2.9-3.1,3L190.1,140.6z"/>
	<path class="st1" d="M204.3,135.3c-0.2,1.1-1,2-1.8,1.9c-0.8-0.1-1.4-1.1-1.1-2.4c0.1-0.3,0.2-0.7,0.3-1l1.3,1l-0.4-1.9
		c0.2-0.1,0.4-0.1,0.6-0.1C203.9,133,204.5,134.1,204.3,135.3z"/>
	<path class="st1" d="M188,132.8c-0.2,1.2-1,2-1.8,1.9c-0.8-0.1-1.3-1.1-1.1-2.4c0.1-0.3,0.2-0.7,0.3-1l1.3,1l-0.4-1.8
		c0.2-0.1,0.4-0.1,0.6-0.1C187.6,130.6,188.2,131.6,188,132.8z"/>
	<path class="st1" d="M195.5,146.7c-1.3-0.1-2.6-0.7-3.5-1.7c-0.2-0.2-0.2-0.6,0-0.8c0,0,0,0,0,0c0.2-0.2,0.5-0.2,0.8,0c0,0,0,0,0,0
		c0.8,0.9,1.9,1.4,3.1,1.3c0.9-0.3,1.6-1,1.9-1.9c0.1-0.3,0.4-0.4,0.7-0.3c0.3,0.1,0.4,0.4,0.3,0.7c0,0,0,0,0,0
		c-0.4,1.3-1.4,2.2-2.7,2.6C195.9,146.7,195.7,146.7,195.5,146.7z"/>
	<path class="st0" d="M186.3,101.9c5.4,1.7,9.7,4.5,17.1,9.7c1.5,0.8,3,1.6,4.4,2.6l20.5,17.3c1.2-5.6,1.6-11.4,1.3-17.1
		c-0.7-8.4-2.4-12.6-7.4-17.2C206.8,85.1,192,94,186.3,101.9z"/>
	<path class="st1" d="M228.2,131.9c-0.1,0-0.3-0.1-0.4-0.1l-20.4-17.2c-1.7-1.1-3.7-2.3-4.1-2.4c-0.1,0-0.2,0-0.2-0.1
		c-7.1-5-11.4-7.9-17-9.6c-0.2,0-0.3-0.2-0.4-0.4c-0.1-0.2,0-0.4,0.1-0.5c4.2-5.7,10.5-9.6,17.5-10.7c6.6-0.9,13,1,19.1,5.8
		c5.1,4.5,6.9,8.8,7.7,17.6c0.3,5.8-0.1,11.6-1.3,17.3c0,0.2-0.2,0.3-0.4,0.4C228.3,131.9,228.2,131.9,228.2,131.9z M203.6,111
		c1.6,0.7,3,1.6,4.5,2.6l19.8,16.7c1.1-5.3,1.4-10.6,1.1-16c-0.7-8.6-2.4-12.5-7.3-16.8c-5.8-4.5-11.9-6.4-18.2-5.5
		c-6.4,1-12.2,4.5-16.3,9.6C192.4,103.4,196.7,106.3,203.6,111L203.6,111z"/>
	<path class="st0" d="M179.2,110.8c9.6-1.9,19.6-0.7,28.5,3.4l-4.9-3.6c0,0-10.5-9.3-16-11c-1.8-0.6-6.5-0.7-7.9-0.7
		C168.6,98.5,179.2,110.8,179.2,110.8z"/>
	<path class="st1" d="M207.7,114.7c-0.1,0-0.2,0-0.2,0c-8.8-4-18.7-5.2-28.2-3.4c-0.2,0-0.4,0-0.6-0.2c-0.6-0.7-6.3-7.4-4.7-10.9
		c0.7-1.4,2.3-2,4.8-2h0.2c2.6,0,5.2,0.2,7.8,0.7c5.5,1.7,15.7,10.7,16.2,11.1l4.8,3.6c0.2,0.2,0.3,0.5,0.1,0.7
		C208.1,114.6,207.9,114.7,207.7,114.7z M188.1,109.4c5.4,0,10.7,0.9,15.8,2.6l-1.3-1c-0.1-0.1-10.5-9.3-15.8-10.9
		c-2.5-0.5-5-0.7-7.5-0.7H179c-2,0-3.3,0.4-3.8,1.3c-1.1,2.3,2.5,7.4,4.3,9.4C182.3,109.6,185.2,109.3,188.1,109.4L188.1,109.4z"/>
	<path class="st1" d="M203.3,112.1c-0.1,0-0.2,0-0.3,0c-0.3-0.1-0.4-0.5-0.3-0.7c0.3-0.6,6.5-14.2,15.2-15.6c0.3,0,0.6,0.2,0.6,0.5
		c0,0,0,0,0,0c0,0.3-0.2,0.6-0.5,0.6c-8.1,1.3-14.2,14.8-14.3,14.9C203.7,112,203.5,112.1,203.3,112.1z"/>
</g>
<g id="lighting-3">
	<path class="st0" d="M210.1,63.7h-3.3V48.3c0-2.9,2.4-5.3,5.3-5.3s5.3,2.4,5.3,5.3v4.5h-3.3v-4.5c0-1.1-0.9-2-2-2c-1.1,0-2,0.9-2,2
		V63.7z"/>
	<path class="st1" d="M210.1,64.3h-3.3c-0.3,0-0.6-0.3-0.6-0.6V48.3c0-3.2,2.6-5.9,5.9-5.9c3.2,0,5.9,2.6,5.9,5.9v4.5
		c0,0.3-0.3,0.6-0.6,0.6h-3.3c-0.3,0-0.6-0.3-0.6-0.6v-4.5c0-0.8-0.6-1.4-1.4-1.4c-0.8,0-1.4,0.6-1.4,1.4v15.4
		C210.7,64,210.4,64.3,210.1,64.3z M207.4,63.2h2.2V48.3c0-1.4,1.2-2.6,2.6-2.6c1.4,0,2.6,1.1,2.6,2.6v3.9h2.2v-3.9
		c0-2.6-2.1-4.7-4.7-4.7c-2.6,0-4.7,2.1-4.7,4.7V63.2z"/>
	<rect x="190.1" y="61" class="st0" width="41.3" height="11.7"/>
	<path class="st1" d="M231.5,73.3h-41.3c-0.3,0-0.6-0.3-0.6-0.6V61c0-0.3,0.3-0.6,0.6-0.6h41.3c0.3,0,0.6,0.3,0.6,0.6v11.7
		C232,73,231.8,73.3,231.5,73.3z M190.7,72.2h40.2V61.5h-40.2V72.2z"/>
	<polygon class="st2" points="231.5,72.7 234.9,77.1 234.9,65.4 231.5,61 	"/>
	<path class="st1" d="M234.9,77.7c-0.2,0-0.3-0.1-0.5-0.2l-3.4-4.4c-0.1-0.1-0.1-0.2-0.1-0.3V61c0-0.3,0.2-0.6,0.5-0.6
		c0.2,0,0.4,0.1,0.5,0.2l3.4,4.4c0.1,0.1,0.1,0.2,0.1,0.4v11.7c0,0.2-0.2,0.5-0.4,0.5L234.9,77.7z M232,72.5l2.3,2.9v-9.9l-2.3-2.9
		V72.5z"/>
	<polygon class="st2" points="190.3,72.7 186.9,77.1 186.9,65.4 190.3,61 	"/>
	<path class="st1" d="M186.9,77.7h-0.2c-0.2-0.1-0.4-0.3-0.4-0.5V65.4c0-0.1,0-0.2,0.1-0.4l3.4-4.4c0.2-0.2,0.5-0.3,0.8-0.1
		c0.1,0.1,0.2,0.3,0.2,0.5v11.7c0,0.1,0,0.2-0.1,0.3l-3.4,4.4C187.2,77.6,187,77.7,186.9,77.7z M187.4,65.6v9.9l2.3-2.9v-9.9
		L187.4,65.6z M190.3,72.7L190.3,72.7z"/>
	<polygon class="st0" points="186.9,77.1 234.9,77.1 231.5,72.7 190.3,72.7 	"/>
	<path class="st1" d="M234.9,77.7h-48c-0.3,0-0.6-0.3-0.6-0.6c0-0.1,0-0.2,0.1-0.3l3.4-4.4c0.1-0.1,0.3-0.2,0.5-0.2h41.2
		c0.2,0,0.3,0.1,0.4,0.2l3.4,4.4c0.1,0.2,0.2,0.4,0.1,0.6C235.3,77.6,235.1,77.7,234.9,77.7z M188,76.6h45.7l-2.5-3.3h-40.7
		L188,76.6z"/>
	<path class="st1" d="M210.2,89.7c-0.3,0-0.6-0.3-0.6-0.6V78.7c0-0.3,0.3-0.6,0.6-0.6c0.3,0,0.6,0.3,0.6,0.6v10.4
		C210.8,89.4,210.6,89.7,210.2,89.7z"/>
	<line class="st3" x1="236.9" y1="78.7" x2="243.4" y2="84.6"/>
	<path class="st1" d="M243.4,85.2c-0.1,0-0.3-0.1-0.4-0.1l-6.5-5.9c-0.2-0.2-0.3-0.6-0.1-0.8c0.2-0.2,0.6-0.3,0.8-0.1c0,0,0,0,0,0
		l6.5,5.9c0.2,0.2,0.2,0.6,0,0.8c0,0,0,0,0,0C243.7,85.1,243.5,85.2,243.4,85.2z"/>
	<line class="st3" x1="184.5" y1="78.7" x2="178" y2="85.2"/>
	<path class="st1" d="M178,85.8c-0.1,0-0.3-0.1-0.4-0.2c-0.2-0.2-0.2-0.6,0-0.8c0,0,0,0,0,0l6.5-6.5c0.2-0.2,0.6-0.2,0.8,0
		c0,0,0,0,0,0c0.2,0.2,0.2,0.5,0,0.8c0,0,0,0,0,0l-6.5,6.5C178.3,85.7,178.2,85.8,178,85.8z"/>
</g>
<g id="lighting-2">
	<path class="st0" d="M295.3,63.7H292V48.3c0.1-2.9,2.6-5.2,5.5-5c2.7,0.1,4.9,2.3,5,5v4.5h-3.3v-4.5c-0.1-1.1-1-1.9-2.2-1.9
		c-1,0.1-1.8,0.9-1.9,1.9V63.7z"/>
	<path class="st1" d="M295.3,64.3H292c-0.3,0-0.6-0.3-0.6-0.6V48.3c0.1-3.2,2.9-5.7,6.1-5.6c3,0.1,5.5,2.6,5.6,5.6v4.5
		c0,0.3-0.3,0.6-0.6,0.6h-3.3c-0.3,0-0.6-0.3-0.6-0.6v-4.5c-0.1-0.8-0.8-1.4-1.6-1.3c-0.7,0.1-1.3,0.6-1.3,1.3v15.4
		C295.9,64,295.6,64.3,295.3,64.3z M292.6,63.2h2.2V48.3c0.1-1.4,1.3-2.5,2.7-2.4c1.3,0.1,2.3,1.1,2.4,2.4v3.9h2.2v-3.9
		c-0.1-2.6-2.3-4.6-5-4.5c-2.4,0.1-4.4,2.1-4.5,4.5V63.2z"/>
	<rect x="275.4" y="61" class="st0" width="41.3" height="11.7"/>
	<path class="st1" d="M316.7,73.3h-41.3c-0.3,0-0.6-0.3-0.6-0.6V61c0-0.3,0.3-0.6,0.6-0.6h41.3c0.3,0,0.6,0.3,0.6,0.6v11.7
		C317.3,73,317,73.3,316.7,73.3C316.7,73.3,316.7,73.3,316.7,73.3z M275.9,72.2h40.2V61.5h-40.2L275.9,72.2z"/>
	<polygon class="st2" points="316.7,72.7 320.1,77.1 320.1,65.4 316.7,61 	"/>
	<path class="st1" d="M320.1,77.7c-0.2,0-0.3-0.1-0.4-0.2l-3.4-4.4c-0.1-0.1-0.1-0.2-0.1-0.3V61c0-0.3,0.3-0.6,0.6-0.6
		c0.2,0,0.3,0.1,0.5,0.2l3.4,4.4c0.1,0.1,0.1,0.2,0.1,0.4v11.7c0,0.2-0.2,0.5-0.4,0.5L320.1,77.7z M317.3,72.5l2.3,2.9v-9.9
		l-2.3-2.9V72.5z"/>
	<polygon class="st2" points="275.5,72.7 272.1,77.1 272.1,65.4 275.5,61 	"/>
	<path class="st1" d="M272.1,77.7h-0.2c-0.2-0.1-0.4-0.3-0.4-0.5V65.4c0-0.1,0-0.2,0.1-0.4l3.4-4.4c0.2-0.2,0.5-0.3,0.8-0.1
		c0.1,0.1,0.2,0.3,0.2,0.5v11.7c0,0.1,0,0.2-0.1,0.3l-3.4,4.4C272.4,77.6,272.3,77.7,272.1,77.7z M272.7,65.6v9.9l2.3-2.9v-9.9
		L272.7,65.6z M275.5,72.7L275.5,72.7z"/>
	<polygon class="st0" points="272.1,77.1 320.1,77.1 316.7,72.7 275.5,72.7 	"/>
	<path class="st1" d="M320.1,77.7h-48c-0.2,0-0.4-0.1-0.5-0.3c-0.1-0.2-0.1-0.4,0.1-0.6l3.4-4.4c0.1-0.1,0.3-0.2,0.5-0.2h41.2
		c0.2,0,0.3,0.1,0.5,0.2l3.4,4.4c0.1,0.2,0.2,0.4,0.1,0.6C320.5,77.6,320.3,77.7,320.1,77.7z M273.2,76.6H319l-2.5-3.3h-40.7
		L273.2,76.6z"/>
	<path class="st1" d="M295.5,89.7c-0.3,0-0.6-0.3-0.6-0.6V78.7c0-0.3,0.3-0.6,0.6-0.6s0.6,0.3,0.6,0.6v10.4
		C296,89.4,295.8,89.7,295.5,89.7z"/>
	<line class="st3" x1="322.2" y1="78.7" x2="328.6" y2="84.6"/>
	<path class="st1" d="M328.6,85.2c-0.1,0-0.3-0.1-0.4-0.1l-6.5-5.9c-0.2-0.2-0.2-0.6,0-0.8c0.2-0.2,0.6-0.2,0.8,0l6.5,5.9
		c0.2,0.2,0.2,0.6,0,0.8c0,0,0,0,0,0C328.9,85.1,328.7,85.2,328.6,85.2z"/>
	<line class="st3" x1="269.8" y1="78.7" x2="263.3" y2="85.2"/>
	<path class="st1" d="M263.3,85.8c-0.2,0-0.3-0.1-0.4-0.2c-0.2-0.2-0.2-0.6,0-0.8l6.5-6.5c0.2-0.2,0.6-0.2,0.8,0
		c0.2,0.2,0.2,0.6,0,0.8l-6.5,6.5C263.6,85.7,263.4,85.8,263.3,85.8z"/>
</g>
<g id="lighting-1">
	<path class="st0" d="M127.4,63.7h-3.3V48.3c0-2.9,2.4-5.3,5.3-5.3c2.9,0,5.3,2.4,5.3,5.3v4.5h-3.3v-4.5c0-1.1-0.9-2-2-2
		c-1.1,0-2,0.9-2,2L127.4,63.7z"/>
	<path class="st1" d="M127.4,64.3h-3.3c-0.3,0-0.6-0.3-0.6-0.6V48.3c0-3.2,2.6-5.9,5.9-5.9c3.2,0,5.9,2.6,5.9,5.9v4.5
		c0,0.3-0.3,0.6-0.6,0.6h-3.3c-0.3,0-0.6-0.3-0.6-0.6v-4.5c0-0.8-0.6-1.4-1.4-1.4c-0.8,0-1.4,0.6-1.4,1.4v15.4
		C127.9,64,127.7,64.3,127.4,64.3C127.4,64.3,127.4,64.3,127.4,64.3z M124.6,63.2h2.2V48.3c0-1.4,1.2-2.6,2.6-2.6
		c1.4,0,2.6,1.1,2.6,2.6v3.9h2.2v-3.9c0-2.6-2.1-4.7-4.7-4.7c-2.6,0-4.7,2.1-4.7,4.7L124.6,63.2z"/>
	<rect x="107.4" y="61" class="st0" width="41.3" height="11.7"/>
	<path class="st1" d="M148.8,73.3h-41.3c-0.3,0-0.6-0.3-0.6-0.6V61c0-0.3,0.3-0.6,0.6-0.6h41.3c0.3,0,0.6,0.3,0.6,0.6v11.7
		C149.3,73,149.1,73.3,148.8,73.3z M108,72.2h40.2V61.5H108L108,72.2z"/>
	<polygon class="st2" points="148.8,72.7 152.1,77.1 152.1,65.4 148.8,61 	"/>
	<path class="st1" d="M152.1,77.7c-0.2,0-0.3-0.1-0.5-0.2l-3.4-4.4c-0.1-0.1-0.1-0.2-0.1-0.3V61c0-0.3,0.2-0.6,0.5-0.6
		c0.2,0,0.4,0.1,0.5,0.2l3.4,4.4c0.1,0.1,0.1,0.2,0.1,0.4v11.7c0,0.2-0.2,0.5-0.4,0.5L152.1,77.7z M149.3,72.5l2.3,2.9v-9.9
		l-2.3-2.9V72.5z"/>
	<polygon class="st2" points="107.5,72.7 104.1,77.1 104.1,65.4 107.5,61 	"/>
	<path class="st1" d="M104.1,77.7H104c-0.2-0.1-0.4-0.3-0.4-0.5V65.4c0-0.1,0-0.2,0.1-0.4l3.4-4.4c0.2-0.2,0.6-0.3,0.8-0.1
		c0.1,0.1,0.2,0.3,0.2,0.4v11.7c0,0.1,0,0.2-0.1,0.3l-3.4,4.4C104.5,77.6,104.3,77.7,104.1,77.7z M104.7,65.6v9.9l2.3-2.9v-9.9
		L104.7,65.6z M107.5,72.7L107.5,72.7z"/>
	<polygon class="st0" points="104.1,77.1 152.1,77.1 148.8,72.7 107.5,72.7 	"/>
	<path class="st1" d="M152.1,77.7h-48c-0.3,0-0.6-0.3-0.6-0.6c0-0.1,0-0.2,0.1-0.3l3.4-4.4c0.1-0.1,0.3-0.2,0.4-0.2h41.2
		c0.2,0,0.3,0.1,0.4,0.2l3.4,4.4c0.1,0.2,0.2,0.4,0.1,0.6C152.6,77.6,152.4,77.7,152.1,77.7z M105.3,76.6H151l-2.5-3.3h-40.7
		L105.3,76.6z"/>
	<path class="st1" d="M127.5,89.7c-0.3,0-0.6-0.3-0.6-0.6V78.7c0-0.3,0.3-0.6,0.6-0.6s0.6,0.3,0.6,0.6v10.4
		C128.1,89.4,127.8,89.7,127.5,89.7z"/>
	<line class="st3" x1="154.2" y1="78.7" x2="160.7" y2="84.6"/>
	<path class="st1" d="M160.7,85.2c-0.1,0-0.3-0.1-0.4-0.1l-6.5-5.9c-0.2-0.2-0.3-0.6-0.1-0.8c0.2-0.2,0.6-0.3,0.8-0.1c0,0,0,0,0,0
		l6.5,5.9c0.2,0.2,0.2,0.6,0,0.8c0,0,0,0,0,0C160.9,85.1,160.8,85.2,160.7,85.2z"/>
	<line class="st3" x1="101.8" y1="78.7" x2="95.3" y2="85.2"/>
	<path class="st1" d="M95.3,85.8c-0.1,0-0.3-0.1-0.4-0.2c-0.2-0.2-0.2-0.6,0-0.8c0,0,0,0,0,0l6.5-6.5c0.2-0.2,0.6-0.2,0.8,0
		c0,0,0,0,0,0c0.2,0.2,0.2,0.5,0,0.8c0,0,0,0,0,0l-6.5,6.5C95.6,85.7,95.5,85.8,95.3,85.8z"/>
</g>
<g id="rigging">
	<rect x="190.1" y="261.9" class="st0" width="8.9" height="124.1"/>
	<path class="st1" d="M199,386.5h-8.9c-0.3,0-0.6-0.3-0.6-0.6V261.9c0-0.3,0.3-0.6,0.6-0.6h8.9c0.3,0,0.6,0.3,0.6,0.6V386
		C199.5,386.3,199.3,386.5,199,386.5z M190.6,385.4h7.8v-123h-7.8L190.6,385.4z"/>
	<rect x="222.9" y="261.9" class="st0" width="8.9" height="124.1"/>
	<path class="st1" d="M231.8,386.5h-8.9c-0.3,0-0.6-0.3-0.6-0.6V261.9c0-0.3,0.3-0.6,0.6-0.6h8.9c0.3,0,0.6,0.3,0.6,0.6V386
		C232.4,386.3,232.1,386.5,231.8,386.5z M223.5,385.4h7.7v-123h-7.7V385.4z"/>
	<polygon class="st0" points="199,297.8 190.1,297.8 222.9,270.5 231.8,270.5 	"/>
	<path class="st1" d="M199,298.3h-8.9c-0.3,0-0.6-0.3-0.6-0.6c0-0.2,0.1-0.3,0.2-0.4l32.9-27.3c0.1-0.1,0.2-0.1,0.4-0.1h8.9
		c0.3,0,0.6,0.3,0.6,0.6c0,0.2-0.1,0.3-0.2,0.4l-32.8,27.3C199.2,298.3,199.1,298.3,199,298.3z M191.6,297.2h7.1l31.5-26.2h-7.1
		L191.6,297.2z"/>
	<polygon class="st0" points="199,270.5 190.1,270.5 222.9,297.8 231.8,297.8 	"/>
	<path class="st1" d="M231.8,298.3h-8.9c-0.1,0-0.3,0-0.4-0.1l-32.9-27.3c-0.2-0.2-0.3-0.6-0.1-0.8c0.1-0.1,0.3-0.2,0.4-0.2h8.9
		c0.1,0,0.3,0,0.4,0.1l32.8,27.3c0.2,0.2,0.3,0.6,0.1,0.8C232.1,298.3,232,298.3,231.8,298.3L231.8,298.3z M223.1,297.2h7.1
		L198.8,271h-7.1L223.1,297.2z"/>
	<polygon class="st0" points="199,305.1 190.1,305.1 222.9,332.4 231.8,332.4 	"/>
	<path class="st1" d="M231.8,333h-8.9c-0.1,0-0.3,0-0.4-0.1l-32.9-27.3c-0.2-0.2-0.3-0.6-0.1-0.8c0.1-0.1,0.3-0.2,0.4-0.2h8.9
		c0.1,0,0.3,0,0.4,0.1l32.8,27.3c0.2,0.2,0.3,0.6,0.1,0.8C232.1,332.9,232,333,231.8,333L231.8,333z M223.1,331.9h7.1l-31.5-26.2
		h-7.1L223.1,331.9z"/>
	<polygon class="st0" points="199,339.7 190.1,339.7 222.9,367.1 231.8,367.1 	"/>
	<path class="st1" d="M231.8,367.6h-8.9c-0.1,0-0.3,0-0.4-0.1l-32.9-27.3c-0.2-0.2-0.3-0.6-0.1-0.8c0.1-0.1,0.3-0.2,0.4-0.2h8.9
		c0.1,0,0.3,0,0.4,0.1l32.8,27.3c0.2,0.2,0.3,0.6,0.1,0.8C232.1,367.6,232,367.6,231.8,367.6L231.8,367.6z M223.1,366.5h7.1
		l-31.5-26.1h-7.1L223.1,366.5z"/>
	<polygon class="st0" points="199,332.4 190.1,332.4 222.9,305.1 231.8,305.1 	"/>
	<path class="st1" d="M199,333h-8.9c-0.3,0-0.6-0.3-0.6-0.6c0-0.2,0.1-0.3,0.2-0.4l32.9-27.3c0.1-0.1,0.2-0.1,0.4-0.1h8.9
		c0.3,0,0.6,0.3,0.6,0.6c0,0.2-0.1,0.3-0.2,0.4l-32.8,27.3C199.2,332.9,199.1,333,199,333z M191.6,331.9h7.1l31.5-26.2h-7.1
		L191.6,331.9z"/>
	<polygon class="st0" points="199,367.1 190.1,367.1 222.9,339.7 231.8,339.7 	"/>
	<path class="st1" d="M199,367.6h-8.9c-0.3,0-0.6-0.3-0.6-0.6c0-0.2,0.1-0.3,0.2-0.4l32.9-27.3c0.1-0.1,0.2-0.1,0.4-0.1h8.9
		c0.3,0,0.6,0.3,0.6,0.6c0,0.2-0.1,0.3-0.2,0.4l-32.8,27.3C199.2,367.6,199.1,367.6,199,367.6z M191.6,366.5h7.1l31.5-26.1h-7.1
		L191.6,366.5z"/>
</g>
<g id="stairs">
	<path class="st0" d="M268.6,232.8L268.6,232.8c-2.1,0-3.8,1.7-3.8,3.8c0,0.3,0,0.6,0.1,0.9l38.5,145.6c0.4,1.7,1.9,2.8,3.7,2.8l0,0
		c2.1,0,3.8-1.7,3.8-3.8c0-0.3,0-0.7-0.1-1l-38.6-145.6C271.8,233.9,270.3,232.8,268.6,232.8z"/>
	<path class="st1" d="M307,386.5c-2,0-3.7-1.3-4.2-3.2l-38.5-145.6c-0.6-2.3,0.8-4.7,3.1-5.3c0.4-0.1,0.7-0.1,1.1-0.1
		c2,0,3.7,1.3,4.2,3.2L311.3,381c0.6,2.3-0.8,4.7-3.1,5.3C307.8,386.4,307.5,386.5,307,386.5L307,386.5z M268.6,233.3
		c-1,0-1.9,0.5-2.5,1.3c-0.6,0.8-0.8,1.8-0.6,2.8L304,383c0.4,1.7,2.1,2.8,3.9,2.4c1.7-0.4,2.8-2.1,2.4-3.9c0-0.1,0-0.1,0-0.2
		l-38.5-145.6C271.3,234.3,270.1,233.3,268.6,233.3z"/>
	<path class="st2" d="M234.8,251.7h36.6c1.1,0,2.1,0.9,2.1,2.1v0.7c0,1.1-0.9,2.1-2.1,2.1h-36.6c-1.1,0-2.1-0.9-2.1-2.1v-0.7
		C232.7,252.6,233.6,251.7,234.8,251.7z"/>
	<path class="st1" d="M271.4,257.1h-36.6c-1.5,0-2.6-1.2-2.7-2.6v-0.7c0-1.5,1.2-2.6,2.7-2.6h36.6c1.5,0,2.6,1.2,2.6,2.6v0.7
		C274,255.9,272.8,257.1,271.4,257.1z M234.8,252.2c-0.8,0-1.5,0.7-1.5,1.5v0.7c0,0.8,0.7,1.5,1.5,1.5h36.6c0.8,0,1.5-0.7,1.5-1.5
		v-0.7c0-0.8-0.7-1.5-1.5-1.5H234.8z"/>
	<path class="st2" d="M241.3,275h36.6c1.1,0,2.1,0.9,2.1,2.1v0.7c0,1.1-0.9,2.1-2.1,2.1h-36.6c-1.1,0-2.1-0.9-2.1-2.1v-0.7
		C239.2,275.9,240.1,275,241.3,275z"/>
	<path class="st1" d="M277.9,280.4h-36.6c-1.5,0-2.6-1.2-2.6-2.6v-0.7c0-1.5,1.2-2.6,2.6-2.6h36.6c1.5,0,2.6,1.2,2.6,2.6v0.7
		C280.5,279.2,279.3,280.4,277.9,280.4z M241.3,275.6c-0.8,0-1.5,0.7-1.5,1.5v0.7c0,0.8,0.7,1.5,1.5,1.5h36.6c0.8,0,1.5-0.7,1.5-1.5
		v-0.7c0-0.8-0.7-1.5-1.5-1.5H241.3z"/>
	<path class="st2" d="M247.7,298.3h36.6c1.1,0,2.1,0.9,2.1,2.1v0.7c0,1.1-0.9,2.1-2.1,2.1h-36.6c-1.1,0-2.1-0.9-2.1-2.1v-0.7
		C245.7,299.2,246.6,298.3,247.7,298.3z"/>
	<path class="st1" d="M284.3,303.7h-36.6c-1.5,0-2.7-1.2-2.7-2.7l0,0v-0.7c0-1.5,1.2-2.6,2.7-2.6h36.6c1.5,0,2.6,1.2,2.6,2.6v0.7
		C287,302.5,285.8,303.7,284.3,303.7z M247.8,298.9c-0.8,0-1.5,0.7-1.5,1.5v0.7c0,0.8,0.7,1.5,1.5,1.5h36.6c0.8,0,1.5-0.7,1.5-1.5
		v-0.7c0-0.8-0.7-1.5-1.5-1.5H247.8z"/>
	<path class="st2" d="M254.2,321.6h36.6c1.1,0,2.1,0.9,2.1,2.1v0.7c0,1.1-0.9,2.1-2.1,2.1h-36.6c-1.1,0-2.1-0.9-2.1-2.1v-0.7
		C252.2,322.6,253.1,321.6,254.2,321.6z"/>
	<path class="st1" d="M290.8,327h-36.6c-1.5,0-2.6-1.2-2.6-2.6v-0.7c0-1.5,1.2-2.6,2.6-2.6h36.6c1.5,0,2.6,1.2,2.6,2.6v0.7
		C293.5,325.8,292.3,327,290.8,327z M254.2,322.2c-0.8,0-1.5,0.7-1.5,1.5v0.7c0,0.8,0.7,1.5,1.5,1.5h36.6c0.8,0,1.5-0.7,1.5-1.5
		v-0.7c0-0.8-0.7-1.5-1.5-1.5H254.2z"/>
	<path class="st2" d="M260.7,344.9h36.6c1.1,0,2.1,0.9,2.1,2.1v0.7c0,1.1-0.9,2.1-2.1,2.1h-36.6c-1.1,0-2.1-0.9-2.1-2.1V347
		C258.6,345.9,259.6,344.9,260.7,344.9z"/>
	<path class="st1" d="M297.3,350.3h-36.6c-1.5,0-2.6-1.2-2.7-2.6V347c0-1.5,1.2-2.6,2.7-2.6h36.6c1.5,0,2.6,1.2,2.6,2.6v0.7
		C299.9,349.1,298.8,350.3,297.3,350.3z M260.7,345.5c-0.8,0-1.5,0.7-1.5,1.5c0,0,0,0,0,0v0.7c0,0.8,0.7,1.5,1.5,1.5c0,0,0,0,0,0
		h36.6c0.8,0,1.5-0.7,1.5-1.5V347c0-0.8-0.7-1.5-1.5-1.5H260.7z"/>
	<path class="st2" d="M267.2,368.2h36.6c1.1,0,2.1,0.9,2.1,2.1v0.7c0,1.1-0.9,2.1-2.1,2.1h-36.6c-1.1,0-2.1-0.9-2.1-2.1v-0.7
		C265.1,369.2,266,368.2,267.2,368.2z"/>
	<path class="st1" d="M303.8,373.6h-36.6c-1.5,0-2.6-1.2-2.6-2.7v-0.7c0-1.5,1.2-2.6,2.6-2.6h36.6c1.5,0,2.6,1.2,2.6,2.6v0.7
		C306.4,372.5,305.3,373.6,303.8,373.6z M267.2,368.8c-0.8,0-1.5,0.7-1.5,1.5v0.7c0,0.8,0.7,1.5,1.5,1.5h36.6c0.8,0,1.5-0.7,1.5-1.5
		v-0.7c0-0.8-0.7-1.5-1.5-1.5H267.2z"/>
	<path class="st0" d="M228.9,232.8L228.9,232.8c-2.1,0-3.8,1.7-3.8,3.8c0,0.3,0,0.6,0.1,0.9l38.5,145.6c0.4,1.7,1.9,2.8,3.7,2.8l0,0
		c2.1,0,3.8-1.7,3.8-3.8c0-0.3,0-0.6-0.1-1l-38.5-145.6C232.1,233.9,230.6,232.7,228.9,232.8z"/>
	<path class="st1" d="M267.5,386.5c-2,0-3.7-1.3-4.2-3.2l-38.6-145.6c-0.6-2.3,0.8-4.7,3.1-5.3c0.4-0.1,0.7-0.1,1.1-0.1
		c2,0,3.7,1.3,4.2,3.2L271.6,381c0.6,2.3-0.8,4.7-3.1,5.3C268.2,386.4,267.8,386.5,267.5,386.5L267.5,386.5z M228.9,233.3
		c-1,0-1.9,0.5-2.5,1.3c-0.6,0.8-0.8,1.8-0.6,2.8L264.3,383c0.4,1.7,2.1,2.8,3.9,2.4c1.7-0.4,2.8-2.1,2.4-3.9c0-0.1,0-0.1,0-0.2
		L232,235.7C231.7,234.3,230.4,233.3,228.9,233.3z"/>
</g>
<g id="keyboard">
	<polygon class="st0" points="102.4,395.9 336.4,395.9 380.6,441 58.2,441 	"/>
	<path class="st1" d="M380.6,441.5H58.2c-0.2,0-0.4-0.1-0.5-0.3c-0.1-0.2,0-0.5,0.1-0.6l44.2-45.1c0.1-0.1,0.2-0.2,0.4-0.2h234
		c0.2,0,0.3,0.1,0.4,0.2l44.2,45.1c0.2,0.2,0.2,0.4,0.1,0.6C381.1,441.4,380.9,441.5,380.6,441.5z M59.6,440.4h319.8l-43.1-43.9
		H102.7L59.6,440.4z"/>
	<rect x="58.2" y="441" class="st2" width="322.4" height="8.2"/>
	<path class="st1" d="M380.6,449.8H58.2c-0.3,0-0.6-0.3-0.6-0.6v-8.3c0-0.3,0.3-0.6,0.6-0.6h322.4c0.3,0,0.6,0.3,0.6,0.6v8.2
		C381.2,449.5,381,449.8,380.6,449.8C380.7,449.8,380.7,449.8,380.6,449.8z M58.8,448.6h321.3v-7.1H58.8L58.8,448.6z"/>
	<polygon class="st2" points="183.1,427.8 168.3,427.8 165.8,434.4 181.5,434.4 	"/>
	<polygon class="st2" points="165.5,427.8 150.7,427.8 147.4,434.4 163.1,434.4 	"/>
	<polygon class="st2" points="147.9,427.8 133.1,427.8 129,434.4 144.6,434.4 	"/>
	<polygon class="st2" points="92,434.4 107.5,434.4 112.4,427.8 97.7,427.8 	"/>
	<polygon class="st2" points="347.8,434.4 362.1,434.4 355.7,427.8 342,427.8 	"/>
	<polygon class="st2" points="130.2,427.8 115.4,427.8 110.5,434.4 126.1,434.4 	"/>
	<polygon class="st2" points="286.8,427.8 272.3,427.8 274.7,434.4 290.1,434.4 	"/>
	<polygon class="st2" points="338.8,427.8 324.5,427.8 329.4,434.4 344.5,434.4 	"/>
	<polygon class="st2" points="269.6,427.8 185.8,427.8 184.2,434.4 272,434.4 	"/>
	<polygon class="st2" points="94.5,427.8 83.2,427.8 76.8,434.4 88.7,434.4 	"/>
	<polygon class="st2" points="321.4,427.8 307,427.8 311.1,434.4 326.3,434.4 	"/>
	<polygon class="st2" points="304.1,427.8 289.6,427.8 292.9,434.4 308.2,434.4 	"/>
	<polygon class="st2" points="171.6,411.4 158.7,411.4 155.8,417.3 169.4,417.3 	"/>
	<polygon class="st2" points="202.6,411.4 189.9,411.4 188.4,417.3 201.8,417.3 	"/>
	<polygon class="st2" points="187.1,411.4 174.3,411.4 172.1,417.3 185.7,417.3 	"/>
	<polygon class="st2" points="218,411.4 205.4,411.4 204.7,417.3 218,417.3 	"/>
	<polygon class="st2" points="140.3,411.4 127.5,411.4 123.2,417.3 136.6,417.3 	"/>
	<polygon class="st2" points="333,417.3 345.6,417.3 340,411.4 327.9,411.4 	"/>
	<polygon class="st2" points="106.8,417.3 120.1,417.3 124.5,411.4 111.9,411.4 	"/>
	<polygon class="st2" points="156,411.4 143.2,411.4 139.5,417.3 153.1,417.3 	"/>
	<polygon class="st2" points="278.8,411.4 266.3,411.4 268.5,417.3 281.7,417.3 	"/>
	<polygon class="st2" points="324.6,411.4 312.3,411.4 316.7,417.3 329.7,417.3 	"/>
	<polygon class="st2" points="233.1,411.4 220.9,411.4 220.9,417.3 233.9,417.3 	"/>
	<polygon class="st2" points="108.7,411.4 98.9,411.4 93.2,417.3 103.6,417.3 	"/>
	<polygon class="st2" points="309.3,411.4 296.9,411.4 300.5,417.3 313.7,417.3 	"/>
	<polygon class="st2" points="248.3,411.4 236,411.4 236.7,417.3 249.8,417.3 	"/>
	<polygon class="st2" points="263.5,411.4 251.1,411.4 252.5,417.3 265.7,417.3 	"/>
	<polygon class="st2" points="294,411.4 281.6,411.4 284.5,417.3 297.7,417.3 	"/>
	<polygon class="st2" points="189.2,402.7 177.5,402.7 175.1,409.1 187.7,409.1 	"/>
	<polygon class="st2" points="174.7,402.7 163,402.7 159.9,409.1 172.4,409.1 	"/>
	<polygon class="st2" points="203.6,402.7 192,402.7 190.4,409.1 202.8,409.1 	"/>
	<polygon class="st2" points="160.2,402.7 148.5,402.7 144.6,409.1 157.1,409.1 	"/>
	<polygon class="st2" points="218,402.7 206.4,402.7 205.7,409.1 218,409.1 	"/>
	<polygon class="st2" points="325.9,409.1 337.8,409.1 331.7,402.7 320.4,402.7 	"/>
	<polygon class="st2" points="145.6,402.7 134,402.7 129.2,409.1 141.7,409.1 	"/>
	<polygon class="st2" points="113.9,409.1 126.2,409.1 130.9,402.7 119.4,402.7 	"/>
	<polygon class="st2" points="246.2,402.7 234.9,402.7 235.7,409.1 247.8,409.1 	"/>
	<polygon class="st2" points="302.9,402.7 291.6,402.7 295.5,409.1 307.6,409.1 	"/>
	<polygon class="st2" points="288.7,402.7 277.3,402.7 280.4,409.1 292.6,409.1 	"/>
	<polygon class="st2" points="232.1,402.7 220.9,402.7 220.9,409.1 232.9,409.1 	"/>
	<polygon class="st2" points="317.1,402.7 305.9,402.7 310.6,409.1 322.6,409.1 	"/>
	<polygon class="st2" points="116.2,402.7 107.2,402.7 101.1,409.1 110.7,409.1 	"/>
	<polygon class="st2" points="274.5,402.7 263.1,402.7 265.4,409.1 277.7,409.1 	"/>
	<polygon class="st2" points="260.4,402.7 249,402.7 250.5,409.1 262.7,409.1 	"/>
	<polygon class="st2" points="185.1,419.6 171.3,419.6 169.1,425.5 183.7,425.5 	"/>
	<polygon class="st2" points="168.6,419.6 154.7,419.6 151.8,425.5 166.4,425.5 	"/>
	<polygon class="st2" points="201.6,419.6 187.8,419.6 186.4,425.5 200.8,425.5 	"/>
	<polygon class="st2" points="99.7,425.5 114.1,425.5 118.4,419.6 104.8,419.6 	"/>
	<polygon class="st2" points="135.2,419.6 121.5,419.6 117.1,425.5 131.6,425.5 	"/>
	<polygon class="st2" points="340.1,425.5 353.5,425.5 347.8,419.6 334.9,419.6 	"/>
	<polygon class="st2" points="218,419.6 204.4,419.6 203.7,425.5 218,425.5 	"/>
	<polygon class="st2" points="151.9,419.6 138.1,419.6 134.5,425.5 149,425.5 	"/>
	<polygon class="st2" points="250.3,419.6 237,419.6 237.7,425.5 251.8,425.5 	"/>
	<polygon class="st2" points="331.7,419.6 318.4,419.6 322.8,425.5 336.8,425.5 	"/>
	<polygon class="st2" points="101.6,419.6 91,419.6 85.4,425.5 96.5,425.5 	"/>
	<polygon class="st2" points="315.4,419.6 302,419.6 305.6,425.5 319.7,425.5 	"/>
	<polygon class="st2" points="299.1,419.6 285.6,419.6 288.5,425.5 302.7,425.5 	"/>
	<polygon class="st2" points="266.6,419.6 253.1,419.6 254.5,425.5 268.7,425.5 	"/>
	<polygon class="st2" points="234.1,419.6 220.9,419.6 220.9,425.5 234.9,425.5 	"/>
	<polygon class="st2" points="282.8,419.6 269.3,419.6 271.5,425.5 285.7,425.5 	"/>
</g>
<g id="mouse">
	<path class="st0" d="M394.3,411.4c2.6-8.2,18.4-14.3,31.9-10.8c13.4,3.5,34.4,10.8,34.3,24.9c-0.1,6.9-16.2,15.4-30.2,12.5
		S391.1,421.6,394.3,411.4z"/>
	<path class="st1" d="M436.1,439.1c-2,0-4-0.2-6-0.6c-10.8-2.3-29.8-11.4-35.2-20.6c-1.3-2-1.8-4.5-1.1-6.8l0,0
		c2.9-9,19.3-14.6,32.5-11.2c23.1,6,34.8,14.6,34.7,25.5c0,2.3-1.6,4.7-4.3,6.9C452.1,436.1,444.2,439.1,436.1,439.1z M394.8,411.6
		c-0.5,2-0.1,4.1,1.1,5.8c5.2,8.9,23.9,17.8,34.5,20c9.6,2,20.1-1.5,25.6-5.9c2.5-2,3.9-4.2,3.9-6.1c0.1-10.3-11.3-18.5-33.9-24.4
		C412.4,397.6,397.2,404,394.8,411.6z"/>
	<path class="st0" d="M401.5,403.6c0,0,9.3,0.9,15.4,5.4"/>
	<path class="st1" d="M416.9,409.6c-0.1,0-0.2,0-0.3-0.1c-5.9-4.4-15-5.3-15.1-5.3c-0.3,0-0.5-0.3-0.5-0.6c0,0,0,0,0,0
		c0-0.3,0.3-0.5,0.6-0.5c0.4,0,9.5,0.9,15.7,5.5c0.2,0.2,0.3,0.5,0.1,0.8l0,0C417.3,409.5,417.1,409.6,416.9,409.6z"/>
</g>
</svg>
